<svg width="114" height="185" viewBox="0 0 114 185" fill="none" xmlns="http://www.w3.org/2000/svg">
<path d="M19.8872 192.683C19.5252 192.599 19.1634 192.824 19.079 193.186C18.9946 193.547 19.2196 193.909 19.5815 193.994L19.8872 192.683ZM61.4706 162.049L60.8003 162.109L61.4706 162.049ZM31.0899 115.289L31.5177 115.809L31.0899 115.289ZM102.325 86.0113L102.998 86.0113L102.325 86.0113ZM19.5815 193.994C20.5748 194.225 21.628 194.436 22.7284 194.619L22.949 193.291C21.8766 193.113 20.8517 192.908 19.8872 192.683L19.5815 193.994ZM29.1026 195.293C31.189 195.39 33.3488 195.369 35.5199 195.192L35.4104 193.85C33.3019 194.022 31.1999 194.043 29.1651 193.949L29.1026 195.293ZM41.8762 194.188C43.9746 193.68 46.0291 192.985 47.9786 192.068L47.4055 190.85C45.5483 191.724 43.5811 192.39 41.5592 192.88L41.8762 194.188ZM53.463 188.601C55.0917 187.241 56.5608 185.639 57.8141 183.763L56.6949 183.015C55.5158 184.78 54.1343 186.287 52.6003 187.568L53.463 188.601ZM60.6618 177.925C61.3077 176.018 61.7833 173.925 62.0633 171.633L60.7273 171.47C60.4575 173.678 60.0012 175.68 59.3869 177.493L60.6618 177.925ZM62.3342 165.194C62.3034 164.159 62.2395 163.09 62.1409 161.989L60.8003 162.109C60.8966 163.185 60.9589 164.226 60.9888 165.234L62.3342 165.194ZM62.1409 161.989C62.0427 160.892 61.9349 159.814 61.8181 158.757L60.4802 158.904C60.596 159.952 60.7029 161.021 60.8003 162.109L62.1409 161.989ZM60.9608 152.328C60.6101 150.102 60.2163 147.978 59.7839 145.954L58.4676 146.235C58.8947 148.234 59.2842 150.335 59.6313 152.538L60.9608 152.328ZM58.2296 139.654C57.6077 137.455 56.9364 135.399 56.2239 133.484L54.9624 133.954C55.6615 135.833 56.3218 137.854 56.9344 140.021L58.2296 139.654ZM53.6459 127.49C52.595 125.376 51.488 123.497 50.3439 121.848L49.238 122.616C50.3413 124.206 51.4157 126.027 52.4405 128.089L53.6459 127.49ZM46.0587 116.854C44.2039 115.155 42.3062 113.969 40.4351 113.285L39.973 114.549C41.6497 115.162 43.3996 116.243 45.1496 117.846L46.0587 116.854ZM33.6663 113.076C32.5891 113.444 31.5806 114.013 30.6621 114.77L31.5177 115.809C32.3177 115.15 33.1849 114.663 34.1012 114.35L33.6663 113.076ZM30.6621 114.77C29.7319 115.536 29.0834 116.546 28.6888 117.72L29.9647 118.149C30.2902 117.18 30.8073 116.394 31.5177 115.809L30.6621 114.77ZM28.607 124.433C29.026 126.395 29.7681 128.498 30.7963 130.644L32.0101 130.062C31.0194 127.995 30.3163 125.992 29.9232 124.152L28.607 124.433ZM34.1099 136.284C35.3169 138.013 36.693 139.72 38.2229 141.357L39.2061 140.438C37.72 138.848 36.3841 137.19 35.2135 135.514L34.1099 136.284ZM43.0071 145.802C44.6853 147.151 46.4845 148.399 48.3928 149.505L49.0677 148.341C47.2218 147.271 45.4787 146.062 43.8506 144.753L43.0071 145.802ZM54.3037 152.308C56.3248 153.062 58.4351 153.65 60.6239 154.034L60.8566 152.708C58.7531 152.339 56.7223 151.774 54.7746 151.047L54.3037 152.308ZM67.1603 154.546C68.2399 154.527 69.3336 154.456 70.4402 154.331L70.2891 152.994C69.2248 153.114 68.1736 153.182 67.1364 153.2L67.1603 154.546ZM70.4402 154.331C71.4515 154.217 72.4329 154.055 73.3852 153.847L73.0978 152.532C72.1913 152.73 71.2555 152.885 70.2891 152.994L70.4402 154.331ZM79.0359 151.938C80.861 151.081 82.5494 150.031 84.1104 148.816L83.2835 147.754C81.7976 148.911 80.1944 149.907 78.464 150.72L79.0359 151.938ZM88.4106 144.713C89.6872 143.242 90.8526 141.642 91.9165 139.94L90.7752 139.227C89.7444 140.876 88.62 142.418 87.394 143.831L88.4106 144.713ZM94.7239 134.745C95.5433 132.992 96.2831 131.17 96.951 129.297L95.6832 128.845C95.0281 130.682 94.3041 132.465 93.5045 134.175L94.7239 134.745ZM98.7073 123.693C99.222 121.816 99.6772 119.909 100.079 117.991L98.7619 117.715C98.3649 119.609 97.9161 121.489 97.4092 123.338L98.7073 123.693ZM101.132 112.227C101.438 110.282 101.697 108.342 101.915 106.426L100.577 106.274C100.361 108.172 100.105 110.093 99.8023 112.018L101.132 112.227ZM102.465 100.604C102.618 98.6019 102.731 96.6493 102.813 94.7687L101.468 94.7103C101.387 96.5776 101.275 98.5154 101.123 100.501L102.465 100.604ZM102.978 88.9197C102.992 87.9148 102.998 86.9438 102.998 86.0113L101.652 86.0113C101.652 86.938 101.646 87.9028 101.633 88.9012L102.978 88.9197ZM102.998 86.0113C102.998 85.0274 102.956 83.9746 102.873 82.8617L101.531 82.9622C101.612 84.0462 101.652 85.0652 101.652 86.0113L102.998 86.0113ZM102.078 76.617C101.741 74.6664 101.312 72.6085 100.793 70.4718L99.4853 70.7896C99.9979 72.8991 100.42 74.9273 100.752 76.846L102.078 76.617ZM99.1393 64.4248C98.5482 62.475 97.89 60.4851 97.1653 58.4732L95.899 58.9294C96.6159 60.9196 97.2668 62.8876 97.8513 64.8153L99.1393 64.4248ZM94.8941 52.6332C94.097 50.7271 93.242 48.8168 92.3295 46.9173L91.1162 47.5001C92.0183 49.378 92.8639 51.2671 93.6524 53.1525L94.8941 52.6332ZM89.4625 41.3432C88.4555 39.5132 87.3934 37.7076 86.2765 35.9405L85.1388 36.6596C86.2404 38.4025 87.2887 40.1846 88.2832 41.992L89.4625 41.3432ZM82.7471 30.7495C81.502 29.0491 80.2005 27.4029 78.843 25.8257L77.8229 26.7038C79.1559 28.2524 80.4355 29.8708 81.6611 31.5447L82.7471 30.7495ZM74.5289 21.2459C73.0034 19.7726 71.4175 18.3896 69.7715 17.1141L68.9471 18.178C70.5517 19.4215 72.1008 20.7721 73.5938 22.214L74.5289 21.2459ZM64.5511 13.5663C63.6398 13.0308 62.7125 12.5285 61.7693 12.0617L61.1723 13.268C62.0857 13.7201 62.9847 14.207 63.8693 14.7267L64.5511 13.5663Z" fill="black"/>
<path d="M42.5223 8.20431C42.0216 7.64206 42.3174 6.74871 43.0547 6.59629L51.3486 4.88152C52.0858 4.7291 52.7116 5.43192 52.475 6.14659L49.813 14.1867C49.5764 14.9014 48.6549 15.0919 48.1542 14.5297L42.5223 8.20431Z" fill="black"/>
</svg>
